<svg width="468" height="468" viewBox="0 0 468 468" fill="none" xmlns="http://www.w3.org/2000/svg">
<g clip-path="url(#clip0_157_2)">
<mask id="mask0_157_2" style="mask-type:luminance" maskUnits="userSpaceOnUse" x="0" y="0" width="468" height="468">
<path d="M468 0H0V468H468V0Z" fill="white"/>
</mask>
<g mask="url(#mask0_157_2)">
<path d="M444.6 404.203H384.49V410.614C384.49 418.585 387.656 426.23 393.293 431.866C398.929 437.503 406.574 440.669 414.545 440.669C422.516 440.669 430.161 437.503 435.797 431.866C441.433 426.23 444.6 418.585 444.6 410.614V404.203Z" fill="#D7E8F0"/>
<path d="M184.86 116.921L184.762 57.3396C184.763 49.3691 187.929 41.7248 193.564 36.0874C199.199 30.4499 206.841 27.2804 214.812 27.2754H414.536" stroke="#CCDDE2" stroke-width="2.08728" stroke-miterlimit="10"/>
<path d="M384.486 410.159V404.197V111.988V57.3394" stroke="#CCDDE2" stroke-width="2.08728" stroke-miterlimit="10"/>
<path d="M384.49 105.02H444.6V57.3397C444.6 49.3687 441.433 41.724 435.797 36.0876C430.161 30.4512 422.516 27.2847 414.545 27.2847C406.574 27.2847 398.929 30.4512 393.293 36.0876C387.656 41.724 384.49 49.3687 384.49 57.3397V111.988" fill="#D7E8F0"/>
<path d="M384.49 105.02H444.6V57.3397C444.6 49.3687 441.433 41.724 435.797 36.0876C430.161 30.4512 422.516 27.2847 414.545 27.2847C406.574 27.2847 398.929 30.4512 393.293 36.0876C387.656 41.724 384.49 49.3687 384.49 57.3397V111.988" stroke="#CCDDE2" stroke-width="2.08728" stroke-miterlimit="10"/>
<path d="M384.481 404.203V410.165C384.482 418.136 387.65 425.781 393.287 431.417C398.924 437.053 406.569 440.22 414.54 440.22" stroke="#CCDDE2" stroke-width="2.08728" stroke-miterlimit="10"/>
<path d="M228.814 440.223H214.831" stroke="#CCDDE2" stroke-width="2.08728" stroke-miterlimit="10"/>
<path d="M384.49 404.198H444.6V410.161C444.598 418.133 441.429 425.779 435.792 431.417C430.154 437.054 422.508 440.223 414.536 440.225H269.423" stroke="#CCDDE2" stroke-width="2.08728" stroke-miterlimit="10"/>
<path d="M350.85 159.447H302.291" stroke="#CCDDE2" stroke-width="2.08728" stroke-miterlimit="10"/>
<path d="M350.85 178.275H302.291" stroke="#CCDDE2" stroke-width="2.08728" stroke-miterlimit="10"/>
<path d="M350.85 197.109H302.291" stroke="#CCDDE2" stroke-width="2.08728" stroke-miterlimit="10"/>
<path d="M350.85 215.934H302.291" stroke="#CCDDE2" stroke-width="2.08728" stroke-miterlimit="10"/>
<path d="M350.85 234.768H302.291" stroke="#CCDDE2" stroke-width="2.08728" stroke-miterlimit="10"/>
<path d="M350.85 253.596H302.291" stroke="#CCDDE2" stroke-width="2.08728" stroke-miterlimit="10"/>
<path d="M350.85 316.5H302.291" stroke="#CCDDE2" stroke-width="2.08728" stroke-miterlimit="10"/>
<path d="M350.85 325.278H302.291" stroke="#CCDDE2" stroke-width="2.08728" stroke-miterlimit="10"/>
<path d="M350.85 334.059H302.291" stroke="#CCDDE2" stroke-width="2.08728" stroke-miterlimit="10"/>
<path d="M350.85 342.838H302.291" stroke="#CCDDE2" stroke-width="2.08728" stroke-miterlimit="10"/>
<path d="M362.265 134.76H290.057C284.81 134.76 280.557 139.014 280.557 144.261V358.829C280.557 364.077 284.81 368.33 290.057 368.33H362.265C367.512 368.33 371.765 364.077 371.765 358.829V144.261C371.765 139.014 367.512 134.76 362.265 134.76Z" stroke="#CCDDE2" stroke-width="2.08728" stroke-miterlimit="10"/>
<path d="M302.29 115.989H263.872" stroke="#CCDDE2" stroke-width="2.08728" stroke-miterlimit="10"/>
<path d="M302.291 93.8704H270.073" stroke="#CCDDE2" stroke-width="2.08728" stroke-miterlimit="10"/>
<path d="M302.291 104.931H265.571" stroke="#CCDDE2" stroke-width="2.08728" stroke-miterlimit="10"/>
<path d="M302.291 82.8083H258.827" stroke="#CCDDE2" stroke-width="2.08728" stroke-miterlimit="10"/>
<path d="M337.297 96.2027C340.582 96.2027 343.245 93.5393 343.245 90.2544C343.245 86.9691 340.582 84.3062 337.297 84.3062C334.012 84.3062 331.349 86.9691 331.349 90.2544C331.349 93.5393 334.012 96.2027 337.297 96.2027Z" fill="#D7E8F0"/>
<path d="M322.228 114.496C322.297 110.545 323.916 106.779 326.735 104.009C329.554 101.24 333.348 99.6877 337.299 99.6877C341.251 99.6877 345.045 101.24 347.864 104.009C350.683 106.779 352.302 110.545 352.371 114.496H322.228Z" fill="#D7E8F0"/>
<path d="M353.251 79.1523H321.348C318.975 79.1523 317.051 81.0758 317.051 83.4486V115.352C317.051 117.725 318.975 119.648 321.348 119.648H353.251C355.624 119.648 357.547 117.725 357.547 115.352V83.4486C357.547 81.0758 355.624 79.1523 353.251 79.1523Z" stroke="#CCDDE2" stroke-width="2.08728" stroke-miterlimit="10"/>
<path d="M338.767 384.697L343.175 393.621C343.293 393.859 343.466 394.065 343.681 394.221C343.895 394.378 344.144 394.48 344.406 394.52L354.276 395.952C354.582 395.994 354.869 396.121 355.105 396.319C355.342 396.517 355.517 396.778 355.612 397.071C355.707 397.364 355.717 397.678 355.641 397.977C355.565 398.276 355.407 398.547 355.184 398.76L348.056 405.71C347.866 405.895 347.725 406.125 347.643 406.377C347.561 406.63 347.543 406.899 347.588 407.161L349.268 416.989C349.32 417.29 349.287 417.6 349.172 417.883C349.056 418.166 348.864 418.412 348.617 418.592C348.369 418.771 348.077 418.878 347.772 418.9C347.467 418.922 347.162 418.858 346.891 418.716L338.079 414.087C337.844 413.963 337.582 413.897 337.316 413.897C337.05 413.897 336.788 413.963 336.553 414.087L327.745 418.716C327.474 418.857 327.169 418.921 326.864 418.899C326.559 418.877 326.267 418.77 326.019 418.59C325.772 418.411 325.579 418.166 325.463 417.883C325.347 417.6 325.312 417.29 325.363 416.989L327.048 407.161C327.093 406.899 327.075 406.63 326.993 406.377C326.912 406.125 326.77 405.896 326.58 405.71L319.429 398.737C319.206 398.524 319.047 398.252 318.972 397.954C318.896 397.655 318.906 397.341 319.001 397.048C319.096 396.754 319.272 396.494 319.508 396.296C319.744 396.098 320.032 395.97 320.337 395.929L330.165 394.497C330.428 394.457 330.678 394.355 330.892 394.199C331.108 394.042 331.282 393.836 331.4 393.598L335.828 384.697C335.963 384.422 336.172 384.191 336.432 384.029C336.691 383.868 336.991 383.782 337.297 383.782C337.603 383.782 337.903 383.868 338.162 384.029C338.422 384.191 338.631 384.422 338.767 384.697Z" fill="#D7E8F0"/>
<path d="M214.218 407.127H297.98" stroke="#CCDDE2" stroke-width="2.08728" stroke-miterlimit="10"/>
<path d="M214.218 418.875H297.98" stroke="#CCDDE2" stroke-width="2.08728" stroke-miterlimit="10"/>
<path d="M185.328 119.622C182.801 132.585 177.203 189.915 172.182 244.718C172.017 244.845 171.843 244.96 171.662 245.065C171.297 245.294 170.932 245.533 170.553 245.734C170.553 245.734 170.525 245.734 170.506 245.767C170.497 245.763 170.487 245.763 170.478 245.767L169.795 246.146L169.519 246.286C169.229 246.436 168.957 246.572 168.667 246.693L168.578 246.74C168.349 246.848 168.11 246.955 167.862 247.044L167.497 247.213C167.207 247.32 166.903 247.442 166.613 247.545L165.836 247.821C165.707 247.853 165.58 247.894 165.457 247.943C165.213 248.018 164.989 248.093 164.727 248.153C164.638 248.186 164.544 248.2 164.455 248.233C164.132 248.322 163.8 248.401 163.463 248.476C163.126 248.551 162.855 248.612 162.527 248.673C162.483 248.69 162.438 248.7 162.391 248.706C162.36 248.712 162.329 248.712 162.298 248.706C161.965 248.766 161.628 248.827 161.31 248.874C161.249 248.874 161.188 248.874 161.114 248.902C160.716 248.963 160.323 249.01 159.925 249.038C159.527 249.066 159.101 249.117 158.675 249.131C158.249 249.145 157.824 249.16 157.398 249.16C155.395 249.168 153.398 248.95 151.445 248.509C146.666 247.407 142.28 245.021 138.759 241.608C135.237 238.195 132.716 233.885 131.466 229.143C131.363 228.675 131.255 228.207 131.162 227.739C130.794 225.972 130.611 224.171 130.614 222.367C130.617 223.943 130.481 225.517 130.207 227.07C130.085 227.767 129.931 228.441 129.739 229.124C128.244 234.864 124.887 239.945 120.194 243.571C115.501 247.198 109.738 249.165 103.807 249.165C97.876 249.165 92.1131 247.198 87.4204 243.571C82.7273 239.945 79.3704 234.864 77.8751 229.124C77.5976 228.064 77.3898 226.987 77.2527 225.9C77.0982 224.728 77.0219 223.548 77.0233 222.367C77.0177 223.578 76.9368 224.788 76.78 225.989C76.6335 227.045 76.4257 228.092 76.1575 229.124C74.7021 234.671 71.5089 239.606 67.0456 243.207C62.5818 246.807 57.0828 248.883 51.3535 249.131C50.9745 249.131 50.5954 249.16 50.2163 249.16C43.121 249.152 36.3185 246.33 31.3022 241.311C26.2859 236.293 23.4657 229.49 23.4607 222.395V222.353H23.3999V196.669C23.3981 193.733 23.9749 190.825 25.0976 188.113C26.2202 185.4 27.8665 182.935 29.9425 180.859C32.0184 178.784 34.4831 177.137 37.1958 176.014C39.9085 174.892 42.8158 174.315 45.7516 174.317H152.694C154.059 174.317 155.369 173.775 156.334 172.809C157.3 171.844 157.842 170.534 157.842 169.169C157.842 167.803 157.3 166.494 156.334 165.528C155.369 164.563 154.059 164.021 152.694 164.021H108.702C106.284 164.02 103.964 163.06 102.25 161.352C100.538 159.645 99.5711 157.328 99.5622 154.909V128.738C99.5674 126.322 100.529 124.006 102.238 122.297C103.946 120.589 106.263 119.627 108.679 119.622H185.328Z" stroke="#CCDDE2" stroke-width="2.08728" stroke-miterlimit="10"/>
<path d="M319.082 440.122L49.7998 440.679C47.3858 440.673 45.0724 439.711 43.3651 438.005C41.6577 436.299 40.6952 433.986 40.6877 431.572V247.423C43.7387 248.59 46.9777 249.186 50.2443 249.183C50.6234 249.183 50.9978 249.183 51.3769 249.155C58.3539 248.877 64.9438 245.874 69.7319 240.792" stroke="#CCDDE2" stroke-width="2.08728" stroke-miterlimit="10"/>
<path d="M134.611 236.463C136.48 239.488 138.933 242.112 141.825 244.181C144.717 246.251 147.992 247.725 151.459 248.519" stroke="#CCDDE2" stroke-width="2.08728" stroke-miterlimit="10"/>
<path d="M167.61 403.309H115.011" stroke="#CCDDE2" stroke-width="2.08728" stroke-miterlimit="10"/>
<path d="M58.2799 403.027C56.3106 402.531 54.5631 401.392 53.314 399.791C52.0644 398.19 51.3844 396.218 51.3816 394.187V249.163C58.3571 248.872 64.9419 245.865 69.7319 240.786" stroke="#CCDDE2" stroke-width="2.08728" stroke-miterlimit="10"/>
<path d="M134.611 236.463C136.48 239.488 138.933 242.112 141.825 244.181C144.717 246.251 147.992 247.725 151.459 248.519" stroke="#CCDDE2" stroke-width="2.08728" stroke-miterlimit="10"/>
<path d="M83.304 343.347C81.3922 341.64 79.8623 339.549 78.814 337.21C77.7657 334.872 77.2223 332.338 77.22 329.775V285.315C77.2359 280.48 79.164 275.847 82.5837 272.427C86.0029 269.008 90.6361 267.08 95.472 267.063H137.508C142.344 267.08 146.977 269.008 150.396 272.427C153.816 275.847 155.744 280.48 155.76 285.315V329.775C155.744 334.611 153.816 339.244 150.396 342.664C146.977 346.083 142.344 348.011 137.508 348.027H112.147" stroke="#CCDDE2" stroke-width="2.08728" stroke-miterlimit="10"/>
<path d="M269.18 291.167C270.509 287.97 271.791 285.443 272.549 284.02C272.735 283.673 272.778 283.267 272.668 282.889C272.558 282.51 272.303 282.191 271.96 281.998L263.919 278.61C263.607 278.434 263.253 278.342 262.894 278.344C262.535 278.347 262.183 278.443 261.873 278.624C261.563 278.805 261.306 279.064 261.127 279.375C260.948 279.686 260.854 280.039 260.854 280.398C260.854 287.418 258.841 294.031 251.821 294.031C244.801 294.031 242.784 287.418 242.784 280.398V280.094C242.786 279.748 242.7 279.407 242.535 279.103C242.369 278.799 242.13 278.542 241.839 278.355C241.547 278.168 241.214 278.058 240.868 278.035C240.524 278.012 240.178 278.076 239.864 278.222L231.66 281.268C231.457 281.362 231.278 281.498 231.134 281.669C230.991 281.84 230.887 282.041 230.831 282.257C230.775 282.473 230.767 282.698 230.808 282.917C230.849 283.137 230.939 283.344 231.07 283.524L231.183 283.679C235.585 289.827 238.285 297.028 239.011 304.555C239.736 312.082 238.461 319.667 235.315 326.543L232.418 332.908C232.214 333.357 232.126 333.851 232.162 334.345C232.198 334.838 232.357 335.314 232.625 335.729C232.892 336.144 233.26 336.486 233.694 336.722C234.128 336.959 234.615 337.083 235.109 337.082H270.794C271.296 337.082 271.79 336.953 272.229 336.709C272.668 336.464 273.037 336.112 273.302 335.686C273.566 335.259 273.718 334.772 273.742 334.27C273.766 333.768 273.661 333.269 273.438 332.819L270.41 326.707C267.678 321.215 266.155 315.2 265.942 309.07C265.73 302.94 266.834 296.835 269.18 291.167Z" stroke="#CCDDE2" stroke-width="2.08728" stroke-miterlimit="10"/>
<path d="M239.115 311.439H266.105" stroke="#CCDDE2" stroke-width="2.08728" stroke-miterlimit="10"/>
<path d="M245.199 311.445C245.325 316.041 245.246 327.872 241.455 337.063" stroke="#CCDDE2" stroke-width="2.08728" stroke-miterlimit="10"/>
<path d="M263.732 337.063C259.946 327.872 259.871 316.041 259.988 311.445" stroke="#CCDDE2" stroke-width="2.08728" stroke-miterlimit="10"/>
<path d="M252.612 337.063V311.445" stroke="#CCDDE2" stroke-width="2.08728" stroke-miterlimit="10"/>
<path d="M141.982 299.618L133.253 304.668L130.843 301.692L132.814 332.931C132.843 333.462 132.763 333.993 132.58 334.493C132.397 334.992 132.114 335.449 131.748 335.836C131.382 336.222 130.942 336.53 130.453 336.74C129.964 336.95 129.438 337.058 128.906 337.058H102.754C102.219 337.058 101.69 336.948 101.199 336.735C100.708 336.523 100.266 336.211 99.9005 335.821C99.5345 335.431 99.2528 334.969 99.0722 334.466C98.8915 333.962 98.8162 333.427 98.8508 332.893L101.191 300.76L98.804 303.732L91.0024 298.682C91.0024 298.622 91.0024 298.565 91.0024 298.509C91.3347 291.714 98.1254 282.756 104.93 282.756H109.765C109.904 283.028 110.028 283.308 110.134 283.594C112.282 289.416 121.366 289.21 123.191 283.374C123.257 283.159 123.327 282.948 123.402 282.756H126.458C134.082 282.756 140.723 291.878 141.94 299.398C141.963 299.483 141.972 299.553 141.982 299.618Z" stroke="#CCDDE2" stroke-width="2.08728" stroke-miterlimit="10"/>
<path d="M121.951 149.68C118.048 149.68 115.9 146.75 115.9 143.259C115.9 139.599 118.292 136.684 122.157 136.684C126.21 136.684 128.265 139.693 128.265 143.053C128.265 147.106 125.836 149.68 121.97 149.68H121.951ZM122.12 147.012C123.744 147.012 124.694 145.44 124.694 143.165C124.694 140.999 123.725 139.356 122.082 139.356C120.44 139.356 119.466 140.999 119.466 143.184C119.466 145.37 120.458 147.012 122.082 147.012H122.12Z" fill="#D7E8F0"/>
<path d="M130.052 148.066V139.361C130.052 139.036 130.117 138.714 130.241 138.414C130.366 138.114 130.548 137.842 130.778 137.612C131.008 137.383 131.281 137.201 131.581 137.077C131.881 136.953 132.203 136.89 132.528 136.89C132.982 136.89 133.427 137.015 133.814 137.251C134.201 137.487 134.516 137.825 134.723 138.229L136.029 140.756C136.787 142.179 137.449 143.652 138.008 145.164H138.06C137.876 143.408 137.79 141.642 137.803 139.876V138.299C137.803 137.926 137.95 137.569 138.214 137.306C138.477 137.043 138.834 136.895 139.207 136.895H139.464C139.836 136.895 140.194 137.043 140.457 137.306C140.72 137.569 140.868 137.926 140.868 138.299V148.066C140.868 148.439 140.72 148.796 140.457 149.059C140.194 149.322 139.836 149.47 139.464 149.47H138.2C137.941 149.47 137.686 149.399 137.465 149.264C137.243 149.128 137.064 148.934 136.946 148.702L135.191 145.286C134.498 143.957 133.679 142.258 133.08 140.746H133.006C133.099 142.445 133.137 144.331 133.137 146.362V148.052C133.137 148.424 132.989 148.782 132.725 149.045C132.462 149.308 132.105 149.456 131.733 149.456H131.471C131.286 149.458 131.103 149.423 130.932 149.354C130.761 149.286 130.605 149.184 130.474 149.055C130.342 148.926 130.237 148.772 130.165 148.602C130.093 148.432 130.054 148.25 130.052 148.066Z" fill="#D7E8F0"/>
<path d="M144.612 136.89H145.169C145.541 136.89 145.899 137.038 146.162 137.302C146.425 137.565 146.573 137.922 146.573 138.294V145.244C146.573 145.616 146.721 145.974 146.984 146.237C147.247 146.5 147.604 146.648 147.977 146.648H149.994C150.367 146.648 150.724 146.796 150.987 147.059C151.25 147.322 151.398 147.679 151.398 148.052C151.398 148.424 151.25 148.782 150.987 149.045C150.724 149.308 150.367 149.456 149.994 149.456H144.612C144.239 149.456 143.882 149.308 143.619 149.045C143.356 148.782 143.208 148.424 143.208 148.052V138.299C143.208 138.114 143.243 137.931 143.314 137.76C143.384 137.589 143.487 137.434 143.618 137.303C143.748 137.172 143.903 137.068 144.074 136.997C144.244 136.927 144.427 136.89 144.612 136.89Z" fill="#D7E8F0"/>
<path d="M156.462 138.58V147.785C156.462 148.234 156.283 148.665 155.966 148.983C155.648 149.301 155.217 149.479 154.768 149.479C154.319 149.478 153.889 149.299 153.573 148.981C153.256 148.664 153.078 148.234 153.078 147.785V138.58C153.078 138.358 153.122 138.138 153.207 137.933C153.292 137.728 153.416 137.542 153.573 137.385C153.73 137.228 153.916 137.104 154.121 137.019C154.326 136.934 154.546 136.89 154.768 136.89C155.216 136.89 155.646 137.068 155.964 137.385C156.282 137.701 156.46 138.131 156.462 138.58Z" fill="#D7E8F0"/>
<path d="M158.774 147.935V139.094C158.774 138.804 158.831 138.516 158.943 138.248C159.054 137.979 159.218 137.736 159.424 137.531C159.63 137.326 159.875 137.164 160.144 137.054C160.413 136.944 160.701 136.888 160.992 136.89H161.427C161.832 136.89 162.228 137.002 162.573 137.212C162.918 137.423 163.199 137.724 163.383 138.084L164.764 140.756C165.52 142.18 166.182 143.653 166.744 145.164H166.8C166.614 143.408 166.526 141.642 166.538 139.876V138.43C166.538 138.227 166.578 138.027 166.655 137.84C166.733 137.653 166.847 137.483 166.99 137.339C167.134 137.197 167.304 137.083 167.492 137.006C167.679 136.929 167.88 136.89 168.082 136.89C168.284 136.89 168.485 136.93 168.671 137.008C168.858 137.085 169.028 137.198 169.171 137.341C169.314 137.484 169.427 137.654 169.504 137.841C169.582 138.027 169.622 138.228 169.622 138.43V147.275C169.622 147.86 169.39 148.42 168.976 148.834C168.563 149.247 168.002 149.479 167.418 149.479C167.012 149.479 166.615 149.368 166.269 149.156C165.923 148.945 165.642 148.642 165.457 148.281L163.926 145.295C163.234 143.966 162.41 142.268 161.816 140.756H161.741C161.834 142.455 161.872 144.341 161.872 146.372V147.93C161.872 148.34 161.709 148.733 161.419 149.023C161.13 149.312 160.737 149.475 160.327 149.475C160.124 149.476 159.923 149.437 159.734 149.361C159.546 149.284 159.375 149.17 159.231 149.027C159.086 148.885 158.972 148.714 158.893 148.527C158.815 148.339 158.774 148.138 158.774 147.935Z" fill="#D7E8F0"/>
<path d="M178.476 144.398H176.478C176.326 144.398 176.175 144.428 176.035 144.486C175.894 144.544 175.767 144.63 175.659 144.738C175.552 144.846 175.467 144.973 175.409 145.114C175.351 145.255 175.322 145.406 175.322 145.558C175.322 145.865 175.444 146.159 175.661 146.376C175.878 146.592 176.172 146.714 176.478 146.714H179.019C179.381 146.714 179.727 146.858 179.982 147.113C180.238 147.369 180.381 147.715 180.381 148.076V148.114C180.382 148.293 180.347 148.47 180.279 148.636C180.211 148.802 180.111 148.952 179.984 149.08C179.857 149.206 179.707 149.307 179.542 149.376C179.376 149.445 179.199 149.48 179.019 149.48H173.099C172.947 149.48 172.796 149.45 172.655 149.392C172.514 149.333 172.386 149.248 172.278 149.14C172.171 149.032 172.085 148.904 172.027 148.764C171.968 148.623 171.938 148.472 171.938 148.32V137.865C171.938 137.557 172.061 137.261 172.278 137.044C172.496 136.826 172.791 136.704 173.099 136.704H178.776C178.955 136.704 179.132 136.739 179.297 136.807C179.463 136.876 179.613 136.976 179.739 137.103C179.865 137.229 179.966 137.379 180.034 137.544C180.103 137.71 180.138 137.886 180.138 138.066V138.108C180.136 138.468 179.993 138.813 179.737 139.068C179.482 139.322 179.136 139.465 178.776 139.465H176.436C176.144 139.465 175.865 139.581 175.658 139.787C175.452 139.993 175.336 140.273 175.336 140.565C175.336 140.856 175.452 141.136 175.658 141.342C175.865 141.549 176.144 141.665 176.436 141.665H178.49C178.67 141.665 178.847 141.7 179.013 141.769C179.178 141.837 179.329 141.938 179.455 142.065C179.582 142.192 179.682 142.343 179.75 142.508C179.818 142.674 179.853 142.852 179.852 143.031C179.853 143.211 179.818 143.39 179.749 143.557C179.68 143.723 179.578 143.875 179.45 144.002C179.322 144.129 179.17 144.23 179.003 144.298C178.836 144.365 178.657 144.4 178.476 144.398Z" fill="#D7E8F0"/>
<path d="M185.796 147.663C185.84 147.478 185.921 147.305 186.035 147.153C186.148 147 186.291 146.873 186.455 146.777C186.619 146.682 186.801 146.621 186.989 146.598C187.177 146.575 187.368 146.59 187.551 146.642C188.161 146.81 188.79 146.896 189.423 146.9C190.583 146.9 191.14 146.507 191.14 145.87C191.14 145.234 190.583 144.934 189.161 144.433C187.036 143.671 185.613 142.51 185.613 140.643C185.613 138.42 187.485 136.702 190.677 136.702C191.365 136.697 192.053 136.767 192.727 136.908C192.907 136.95 193.077 137.028 193.226 137.137C193.376 137.246 193.501 137.385 193.596 137.544C193.69 137.703 193.752 137.88 193.776 138.064C193.8 138.247 193.787 138.433 193.738 138.612C193.651 138.959 193.432 139.259 193.126 139.446C192.82 139.634 192.454 139.694 192.104 139.613C191.624 139.503 191.132 139.448 190.64 139.449C189.61 139.449 189.053 139.819 189.053 140.385C189.053 141.022 189.722 141.265 191.309 141.859C193.569 142.702 194.585 143.9 194.585 145.655C194.585 147.817 192.9 149.666 189.222 149.666C188.394 149.662 187.57 149.557 186.769 149.352C186.428 149.252 186.137 149.025 185.956 148.718C185.776 148.411 185.718 148.048 185.796 147.7V147.663Z" fill="#D7E8F0"/>
<path d="M197.449 139.731H197.075C196.702 139.731 196.345 139.583 196.082 139.32C195.819 139.056 195.671 138.699 195.671 138.327C195.671 137.955 195.819 137.598 196.082 137.334C196.345 137.071 196.702 136.923 197.075 136.923H204.095C204.467 136.923 204.825 137.071 205.088 137.334C205.351 137.598 205.499 137.955 205.499 138.327C205.499 138.699 205.351 139.056 205.088 139.32C204.825 139.583 204.467 139.731 204.095 139.731H203.664C203.292 139.731 202.935 139.879 202.672 140.142C202.408 140.406 202.26 140.763 202.26 141.135V148.043C202.26 148.415 202.112 148.772 201.849 149.036C201.586 149.299 201.229 149.447 200.856 149.447H200.304C199.932 149.447 199.574 149.299 199.311 149.036C199.048 148.772 198.9 148.415 198.9 148.043V141.149C198.902 140.959 198.866 140.772 198.793 140.596C198.72 140.421 198.613 140.262 198.477 140.13C198.342 139.998 198.181 139.894 198.004 139.825C197.827 139.757 197.639 139.725 197.449 139.731Z" fill="#D7E8F0"/>
<path d="M212.032 149.68C208.129 149.68 205.981 146.75 205.981 143.259C205.981 139.599 208.372 136.684 212.238 136.684C216.291 136.684 218.346 139.693 218.346 143.053C218.346 147.106 215.917 149.68 212.051 149.68H212.032ZM212.201 147.012C213.825 147.012 214.779 145.44 214.779 143.165C214.779 140.999 213.806 139.356 212.163 139.356C210.521 139.356 209.547 140.999 209.547 143.184C209.547 145.37 210.539 147.012 212.163 147.012H212.201Z" fill="#D7E8F0"/>
<path d="M220.138 138.154C220.136 137.853 220.246 137.563 220.447 137.339C220.647 137.115 220.924 136.973 221.223 136.942C222.061 136.858 223.095 136.797 224.209 136.797C226.133 136.797 227.513 137.059 228.468 137.784C228.877 138.107 229.203 138.523 229.417 138.998C229.632 139.473 229.728 139.992 229.699 140.513C229.678 141.175 229.464 141.817 229.082 142.359C228.7 142.9 228.168 143.318 227.551 143.559V143.616C228.375 143.985 228.843 144.79 229.156 145.871C229.292 146.339 229.432 146.868 229.563 147.383C229.628 147.63 229.636 147.889 229.585 148.139C229.535 148.39 229.428 148.626 229.271 148.828C229.115 149.031 228.915 149.195 228.686 149.308C228.456 149.421 228.204 149.479 227.949 149.48H227.916C227.556 149.481 227.206 149.366 226.918 149.152C226.629 148.938 226.417 148.635 226.315 148.291C226.175 147.823 226.02 147.257 225.847 146.564C225.51 145.071 225.042 144.753 223.999 144.753H223.456V147.804C223.457 148.24 223.288 148.659 222.985 148.972C222.681 149.285 222.268 149.468 221.832 149.48C221.612 149.48 221.394 149.436 221.191 149.352C220.989 149.268 220.804 149.144 220.649 148.989C220.493 148.833 220.371 148.648 220.287 148.445C220.203 148.242 220.161 148.024 220.161 147.804L220.138 138.154ZM223.479 142.324H224.359C225.627 142.324 226.357 141.711 226.357 140.775C226.357 139.839 225.74 139.301 224.621 139.301C224.239 139.288 223.856 139.313 223.479 139.376V142.324Z" fill="#D7E8F0"/>
<path d="M238.212 144.397H236.2C236.047 144.397 235.897 144.427 235.756 144.485C235.615 144.543 235.487 144.629 235.379 144.736C235.271 144.845 235.186 144.972 235.128 145.113C235.069 145.254 235.039 145.405 235.039 145.557C235.041 145.864 235.163 146.158 235.381 146.375C235.598 146.592 235.893 146.713 236.2 146.713H238.736C239.095 146.717 239.438 146.862 239.69 147.117C239.943 147.372 240.084 147.716 240.084 148.075V148.113C240.084 148.292 240.049 148.47 239.98 148.635C239.911 148.801 239.811 148.952 239.684 149.079C239.557 149.206 239.406 149.306 239.24 149.375C239.075 149.444 238.897 149.479 238.718 149.479H232.816C232.664 149.479 232.513 149.449 232.372 149.391C232.232 149.332 232.104 149.247 231.997 149.139C231.889 149.031 231.805 148.903 231.747 148.762C231.689 148.621 231.66 148.471 231.66 148.319V138.214C231.66 138.025 231.696 137.838 231.768 137.663C231.84 137.488 231.946 137.329 232.079 137.196C232.213 137.062 232.372 136.955 232.546 136.883C232.721 136.81 232.908 136.773 233.097 136.773H238.474C238.836 136.773 239.184 136.917 239.441 137.173C239.697 137.43 239.841 137.777 239.841 138.14V138.177C239.841 138.356 239.805 138.534 239.737 138.699C239.668 138.865 239.567 139.015 239.44 139.141C239.313 139.268 239.163 139.368 238.997 139.436C238.831 139.505 238.653 139.539 238.474 139.539H236.106C235.823 139.539 235.552 139.651 235.352 139.851C235.151 140.051 235.039 140.323 235.039 140.606C235.039 140.746 235.067 140.884 235.121 141.013C235.174 141.143 235.253 141.26 235.352 141.359C235.451 141.458 235.569 141.536 235.698 141.589C235.828 141.642 235.966 141.669 236.106 141.668H238.212C238.574 141.67 238.92 141.814 239.175 142.07C239.431 142.326 239.574 142.673 239.574 143.035C239.574 143.396 239.43 143.742 239.175 143.998C238.92 144.253 238.573 144.397 238.212 144.397Z" fill="#D7E8F0"/>
<path d="M86.3975 365.803C87.8624 364.615 89.5659 363.519 90.7452 362.204C94.0493 358.507 92.7764 353.78 94.8964 349.737C97.4751 344.79 105.59 341.336 113.56 341.781C112.805 344.114 112.288 346.518 112.016 348.955C111.782 351.122 112.348 353.537 111.726 355.634C110.71 359.013 105.295 361.058 104.635 364.526C104.055 367.591 107.64 370.455 107.046 373.572C106.419 376.918 101.275 378.767 99.3845 381.725C97.8401 384.13 98.5655 386.873 97.7652 389.442C96.7965 392.531 93.4362 395.264 89.0324 396.546L88.5971 396.673C86.9788 395.287 85.5902 393.654 84.4834 391.833" stroke="#CCDDE2" stroke-width="2.08728" stroke-miterlimit="10"/>
<path d="M108.693 345.675C96.8059 357.8 91.2133 383.367 89.0371 396.556C88.8593 397.669 88.7001 398.69 88.5691 399.607" stroke="#CCDDE2" stroke-width="2.08728" stroke-miterlimit="10"/>
<path d="M109.788 407.038L104.317 437.617C104.165 438.476 103.715 439.253 103.047 439.813C102.378 440.373 101.534 440.679 100.662 440.677H72.072C71.1922 440.677 70.3409 440.365 69.6697 439.796C68.9991 439.227 68.5517 438.438 68.4075 437.57L63.3672 407.038H109.788Z" stroke="#CCDDE2" stroke-width="2.08728" stroke-miterlimit="10"/>
<path d="M114.988 403.627C114.911 404.557 114.488 405.423 113.802 406.056C113.116 406.688 112.218 407.039 111.286 407.039H61.9725C61.0486 407.039 60.1585 406.694 59.4748 406.073C58.7915 405.452 58.3637 404.598 58.2753 403.679C58.2261 403.163 58.2856 402.644 58.4489 402.153C58.6127 401.662 58.8771 401.211 59.2249 400.828C59.573 400.445 59.9971 400.139 60.4702 399.93C60.9434 399.72 61.4549 399.612 61.9725 399.612H111.286C111.799 399.612 112.306 399.719 112.776 399.925C113.246 400.131 113.668 400.432 114.015 400.809C114.364 401.186 114.63 401.631 114.797 402.117C114.964 402.601 115.029 403.116 114.988 403.627Z" stroke="#CCDDE2" stroke-width="2.08728" stroke-miterlimit="10"/>
<path d="M72.6851 358.684C77.0516 371.915 79.5647 386.619 80.847 395.979C80.9818 396.033 81.119 396.081 81.2589 396.12C82.5211 394.837 83.6068 393.392 84.4881 391.823C85.5743 390.007 86.4579 388.076 87.1229 386.067C88.0589 383.072 86.4116 379.983 86.0184 376.941C85.5504 373.248 86.9544 369.364 86.4116 365.779C86.4116 365.671 86.3741 365.55 86.3414 365.423C86.3414 365.372 86.3414 365.297 86.3039 365.227C86.1228 364.312 85.7788 363.437 85.2884 362.643C83.8095 360.219 80.936 358.488 79.2044 356.171C76.0313 351.894 77.2434 346.423 75.2123 341.733C74.6053 340.355 73.747 339.104 72.6804 338.041C69.1143 334.372 63.1613 332.106 57.2786 332.514C58.0133 335.235 58.5141 338.014 58.7762 340.821C58.9868 343.338 58.4532 346.137 59.0429 348.561C60.021 352.483 65.2299 354.851 65.8523 358.857C66.4233 362.405 62.9835 365.742 63.5357 369.341C64.1582 373.225 69.0768 375.368 70.8974 378.789C72.3762 381.569 71.6836 384.78 72.4652 387.738C72.5218 387.974 72.5939 388.208 72.6804 388.435C72.6804 388.435 74.1266 393.976 80.8424 395.974" stroke="#CCDDE2" stroke-width="2.08728" stroke-miterlimit="10"/>
<path d="M81.3102 399.597C81.1885 398.511 81.0294 397.318 80.8422 395.998C79.5599 386.638 77.0467 371.934 72.6803 358.703C69.9144 350.307 66.4044 342.501 61.9678 337.044" stroke="#CCDDE2" stroke-width="2.08728" stroke-miterlimit="10"/>
<path d="M79.2139 356.184C79.2139 356.184 79.9954 343.979 86.5802 340.272C93.165 336.566 93.0246 357.369 93.0246 357.369" stroke="#CCDDE2" stroke-width="2.08728" stroke-miterlimit="10"/>
<path d="M86.3975 365.802C86.3975 365.802 85.0497 358.82 87.4084 351.954" stroke="#CCDDE2" stroke-width="2.08728" stroke-miterlimit="10"/>
<path d="M160.355 186.821H47.9418C43.9355 186.821 40.6877 190.069 40.6877 194.075V196.879C40.6877 200.885 43.9355 204.133 47.9418 204.133H160.355C164.361 204.133 167.609 200.885 167.609 196.879V194.075C167.609 190.069 164.361 186.821 160.355 186.821Z" stroke="#CCDDE2" stroke-width="2.08728" stroke-miterlimit="10"/>
<path d="M232.647 95.7664C232.647 95.7664 214.302 95.9629 202.578 113.583C190.855 131.203 186.414 152.483 187.162 178.308L185.857 232.418C185.857 232.418 205.311 234.968 211.873 226.086C211.873 226.086 213.333 218.729 224.279 212.443L232.647 95.7664Z" fill="#27AE61"/>
<path d="M219.778 345.303L226.203 350.919V354.144L224.331 354.785C224.331 354.785 215.439 355.698 216.146 354.083C216.853 352.469 219.778 345.303 219.778 345.303Z" fill="#2E2E2E"/>
<path d="M195.502 400.861L178.186 440.121H134.194C133.369 440.144 132.548 440.001 131.779 439.701C131.01 439.401 130.309 438.95 129.717 438.374C129.125 437.798 128.655 437.11 128.334 436.349C128.012 435.589 127.847 434.772 127.847 433.946C127.847 433.121 128.012 432.303 128.334 431.543C128.655 430.782 129.125 430.094 129.717 429.518C130.309 428.942 131.01 428.491 131.779 428.191C132.548 427.891 133.369 427.748 134.194 427.771C140.674 427.773 146.953 425.52 151.953 421.398C156.953 417.275 160.362 411.542 161.596 405.18L162.438 400.861C162.49 400.608 195.502 400.861 195.502 400.861Z" fill="black"/>
<path d="M314.683 399.203L292.364 437.088C291.972 437.825 291.435 438.474 290.786 438.998C290.136 439.521 289.387 439.908 288.583 440.134C287.78 440.36 286.939 440.421 286.112 440.313C285.284 440.205 284.487 439.931 283.769 439.507C283.05 439.083 282.425 438.517 281.931 437.844C281.437 437.172 281.084 436.406 280.894 435.594C280.704 434.781 280.681 433.938 280.826 433.117C280.97 432.295 281.28 431.511 281.736 430.812C285.026 425.232 286.274 418.681 285.266 412.282C284.257 405.883 281.055 400.034 276.209 395.736C274.66 394.364 273.401 393.25 272.689 392.628L295.757 372.79L314.683 399.203Z" fill="black"/>
<path d="M319.246 368.256H226.114V240.272H226.091C224.949 220.859 217.068 218.276 217.068 218.276L221.28 214.948C209.322 159.565 219.876 119.008 231.108 95.7673C234.401 88.8531 238.374 82.2829 242.967 76.1535C243.018 76.0833 243.074 76.0271 243.117 75.9616C243.556 75.385 244.166 74.9605 244.859 74.7476C245.552 74.5346 246.295 74.5445 246.983 74.7752C247.67 75.0059 248.268 75.4463 248.693 76.0341C249.118 76.6224 249.347 77.3281 249.35 78.0535L249.406 93.3103C268.506 92.5194 279.714 114.258 284.319 129.936C289.21 146.616 289.088 164.863 285.513 181.641C284.133 188.205 281.961 194.578 279.045 200.618L319.246 368.256Z" fill="#2E2E2E"/>
<path d="M211.873 77.8472L191.127 103.063L198.872 103.021L186.142 116.92C182.571 118.048 162.452 354.777 162.452 354.777H171.405L195.123 232.718C192.037 233.095 188.911 232.989 185.857 232.404L187.2 165.391C188.136 143.887 196.775 109.76 218.336 99.0663L218.416 99.0242C218.935 88.5082 221.664 81.6192 221.664 81.6192C216.099 82.8594 211.873 77.8472 211.873 77.8472Z" fill="#2E2E2E"/>
<path d="M195.123 232.719L162.452 400.862L161.61 405.181C160.372 411.539 156.961 417.269 151.962 421.387C146.962 425.505 140.685 427.756 134.208 427.753C133.383 427.73 132.561 427.873 131.793 428.173C131.024 428.473 130.322 428.924 129.73 429.5C129.139 430.076 128.669 430.764 128.347 431.525C128.026 432.286 127.861 433.103 127.861 433.928C127.861 434.754 128.026 435.571 128.347 436.331C128.669 437.092 129.139 437.78 129.73 438.356C130.322 438.932 131.024 439.383 131.793 439.683C132.561 439.983 133.383 440.126 134.208 440.104H178.2L195.516 400.843L226.095 331.546" stroke="black" stroke-width="2.08728" stroke-miterlimit="10"/>
<path d="M226.091 240.276V368.251H319.251L279.04 200.646" stroke="black" stroke-width="2.08728" stroke-miterlimit="10"/>
<path d="M249.393 93.3108L231.328 109.223L249.393 108.844L249.912 173.011C249.953 178.473 248.798 183.877 246.529 188.845C244.259 193.813 240.93 198.225 236.775 201.77L221.968 214.406C204.891 137.382 230.593 92.3842 243.108 75.9574C243.546 75.3794 244.156 74.954 244.85 74.7406C245.544 74.5272 246.287 74.537 246.975 74.7686C247.663 75.0003 248.261 75.4416 248.685 76.0313C249.108 76.6205 249.336 77.3281 249.337 78.054L249.393 93.3108ZM249.393 93.3108C268.497 92.5199 279.705 114.258 284.31 129.936C289.201 146.616 289.074 164.863 285.504 181.641C283.318 191.867 279.321 201.882 273.275 210.465C267.626 218.454 260.143 224.852 253.01 231.497C250.483 233.837 247.862 236.074 245.157 238.222L226.082 253.016" stroke="black" stroke-width="2.08728" stroke-miterlimit="10"/>
<path d="M245.101 65.6231C244.379 66.6428 243.422 67.4731 242.311 68.0431C241.199 68.6136 239.967 68.907 238.718 68.8991C237.637 68.914 236.556 68.8546 235.484 68.7212C234.234 68.5574 233.555 68.2158 234.412 67.5933C234.682 67.3912 234.936 67.1675 235.17 66.9241C236.681 65.3652 237.738 63.4235 238.226 61.3081C238.76 58.9447 238.226 56.6281 236.382 55.3598C235.941 55.058 235.455 54.8291 234.941 54.6812C234.111 54.4257 233.253 54.2684 232.385 54.2132C231.95 54.1851 231.501 54.1711 231.056 54.1711C230.588 51.321 229.521 47.3102 227.345 45.6395C226.814 45.2313 226.183 44.9751 225.517 44.8984C224.852 44.8218 224.178 44.9274 223.568 45.2042C220.292 46.4538 215.43 47.4179 212.837 46.9171C212.677 46.7538 212.572 46.5442 212.538 46.3181C212.899 45.4147 213.316 44.5347 213.787 43.6832C214.292 42.8085 214.855 41.9689 215.472 41.1701C220.119 35.2499 228.244 32.4653 235.596 33.8505C236.769 34.0655 237.917 34.4011 239.022 34.8521C242.401 36.6585 244.769 39.5321 246.304 43.0046C250.52 54.6344 247.708 61.8884 245.101 65.6231Z" fill="#27AE61"/>
<path d="M245.129 368.256L272.666 392.653C273.387 393.275 274.636 394.389 276.185 395.76C281.03 400.054 284.233 405.898 285.245 412.292C286.258 418.686 285.017 425.233 281.736 430.813C281.325 431.513 281.055 432.286 280.943 433.09C280.831 433.893 280.878 434.711 281.082 435.496C281.286 436.282 281.642 437.019 282.131 437.667C282.62 438.314 283.232 438.859 283.931 439.27C284.63 439.682 285.404 439.951 286.207 440.063C287.011 440.175 287.829 440.128 288.614 439.924C289.399 439.72 290.136 439.364 290.784 438.875C291.431 438.386 291.977 437.775 292.388 437.075L314.683 399.205L295.734 372.805L292.458 368.27" stroke="black" stroke-width="2.08728" stroke-miterlimit="10"/>
<path d="M226.081 351.412L219.777 345.824" stroke="black" stroke-width="2.08728" stroke-miterlimit="10"/>
<path d="M211.878 77.8418L191.122 103.067L198.867 103.02L186.147 116.915C185.936 116.976 185.679 117.917 185.328 119.62C182.801 132.584 177.204 189.914 172.182 244.717C167.011 301.082 162.443 354.776 162.443 354.776H171.405" stroke="black" stroke-width="2.08728" stroke-miterlimit="10"/>
<path d="M226.081 354.777H215.842" stroke="black" stroke-width="2.08728" stroke-miterlimit="10"/>
<path d="M226.081 240.271C218.369 240.093 214.714 236.873 213.08 233.18C210.787 227.948 212.58 221.808 217.063 218.275L221.982 214.404" stroke="black" stroke-width="2.08728" stroke-miterlimit="10"/>
<path d="M211.873 227.134C211.873 227.134 198.872 235.015 185.857 232.404L187.2 165.391C188.328 140.053 200.089 97.1938 231.117 95.7664" stroke="black" stroke-width="2.08728" stroke-miterlimit="10"/>
<path d="M227.644 79.2881C227.644 79.2881 209.481 90.6746 208.456 64.5227C208.148 56.5199 208.499 47.0382 213.689 40.4489C218.336 34.524 226.46 31.7394 233.813 33.1247C239.897 34.2806 243.772 38.0153 245.957 42.9527" stroke="black" stroke-width="2.08728" stroke-miterlimit="10"/>
<path d="M226.081 240.462C226.089 240.398 226.089 240.334 226.081 240.27C224.944 220.858 217.063 218.274 217.063 218.274" stroke="black" stroke-width="1.38996" stroke-miterlimit="10"/>
<path d="M221.022 81.759L218.308 99.0657" stroke="black" stroke-width="2.08728" stroke-miterlimit="10"/>
<path d="M212.004 42.9629C207.113 48.6164 217.587 47.3247 223.236 45.1625C228.112 43.2905 230.026 50.0157 230.724 54.1856" stroke="black" stroke-width="2.08728" stroke-miterlimit="10"/>
<path d="M242.958 67.4248V76.153" stroke="black" stroke-width="2.08728" stroke-miterlimit="10"/>
<path d="M214.592 66.2214C216.174 66.2214 217.456 63.2941 217.456 59.6835C217.456 56.0724 216.174 53.1455 214.592 53.1455C213.01 53.1455 211.728 56.0724 211.728 59.6835C211.728 63.2941 213.01 66.2214 214.592 66.2214Z" stroke="black" stroke-width="1.38996" stroke-miterlimit="10"/>
<path d="M206.416 66.2214C207.998 66.2214 209.28 63.2941 209.28 59.6835C209.28 56.0724 207.998 53.1455 206.416 53.1455C204.834 53.1455 203.552 56.0724 203.552 59.6835C203.552 63.2941 204.834 66.2214 206.416 66.2214Z" stroke="black" stroke-width="1.38996" stroke-miterlimit="10"/>
<path d="M214.592 66.2214C216.174 66.2214 217.456 63.2941 217.456 59.6835C217.456 56.0724 216.174 53.1455 214.592 53.1455C213.01 53.1455 211.728 56.0724 211.728 59.6835C211.728 63.2941 213.01 66.2214 214.592 66.2214Z" fill="black"/>
<path d="M206.416 66.2214C207.998 66.2214 209.28 63.2941 209.28 59.6835C209.28 56.0724 207.998 53.1455 206.416 53.1455C204.834 53.1455 203.552 56.0724 203.552 59.6835C203.552 63.2941 204.834 66.2214 206.416 66.2214Z" fill="black"/>
<path d="M217.176 56.8667C220.023 55.9242 222.933 55.1842 225.885 54.6531C228.693 54.1851 231.838 53.7779 234.599 54.625C237.604 55.561 238.54 58.369 237.875 61.2565C237.396 63.3869 236.346 65.3459 234.838 66.924C234.601 67.1711 234.344 67.3981 234.07 67.6026C232.591 68.6884 235.676 68.9083 238.376 68.9083C239.626 68.9163 240.859 68.6224 241.971 68.0519C243.083 67.4819 244.041 66.6517 244.764 65.6323C247.371 61.8883 250.184 54.6437 245.958 42.9719" stroke="black" stroke-width="2.08728" stroke-miterlimit="10"/>
<path d="M233.481 54.354C232.589 54.793 231.849 55.4898 231.357 56.3547C230.866 57.2191 230.645 58.2113 230.724 59.2025" stroke="black" stroke-width="2.08728" stroke-miterlimit="10"/>
<path d="M416.946 440.725H57.2832" stroke="black" stroke-width="2.08728" stroke-miterlimit="10"/>
<path d="M426.198 -172.045C421.752 -164.988 416.118 -158.824 408.882 -154.514C404.63 -151.985 399.951 -150.255 395.076 -149.408C384.06 -147.475 372.458 -149.913 362.26 -155.024C358.914 -156.696 355.718 -158.653 352.708 -160.874C350.398 -162.59 348.19 -164.438 346.095 -166.41C345.159 -167.304 344.247 -168.222 343.367 -169.176C340.845 -171.884 338.61 -174.845 336.698 -178.012C334.033 -182.355 332.153 -187.133 331.143 -192.127L426.198 -172.045ZM442.438 -30.4192V-231.729H74.1218V-31.3225L194.688 -30.7375L203.014 -30.7L256.366 -30.4286L442.438 -30.4192ZM74.1312 36.7856H74.9689L74.1312 35.77V36.7856Z" stroke="#CCDDE2" stroke-width="2.70036" stroke-miterlimit="10"/>
</g>
</g>
<defs>
<clipPath id="clip0_157_2">
<rect width="468" height="468" fill="white"/>
</clipPath>
</defs>
</svg>
